# xmcd
# Track frame offsets:
# 150
# 21667
# 39397
# 56752
# 68310
# 83232
# 97717
# 113502
# 126850
# 140955
# 156325
# 173685
# 191727
# 211234
#
# Disc length: 2992 seconds
# Revision: 0
# Processed by: cddbd v1.5PL3 Copyright (c) Steve Scherf et al.
# Submitted via: VisiTrax 2.9.9.209 - For more info visit www.synapsa.com
#
DISCID=bd0bae0e
DTITLE=DAVE SHERIFF - LOVE TO LINE DANCE
DYEAR=1900
DGENRE=COUNTRY
TTITLE0=YOUR NEVER ALONE
TTITLE1=BUDDY HOLLY
TTITLE2=JACKSON WALTZ
TTITLE3=STOMPING IT OUT
TTITLE4=BUFFALO
TTITLE5=HORSING AROUND
TTITLE6=ELECTRIC REEL
TTITLE7=NORMA JEAN
TTITLE8=STEP AHEAD
TTITLE9=COWBOY RHYTHM
TTITLE10=STROLL ALONG
TTITLE11=CHA TANGO
TTITLE12=COWGIRL TWIST
TTITLE13=ALL CLAPPED OUT
EXTD=
EXTT0=
EXTT1=
EXTT2=
EXTT3=
EXTT4=
EXTT5=
EXTT6=
EXTT7=
EXTT8=
EXTT9=
EXTT10=
EXTT11=
EXTT12=
EXTT13=
PLAYORDER=
